<svg xmlns="http://www.w3.org/2000/svg" viewBox="0 0 980 744" role="img" width="980" height="744"><defs><style>
  .surface { fill: #ffffff; stroke: #cbd5e1; }
  .band-blue { fill: #eff6ff; stroke: #3b82f6; }
  .band-amber { fill: #fffbeb; stroke: #f59e0b; }
  .band-grey { fill: #f8fafc; stroke: #cbd5e1; }
  .t-title { fill: #1e293b; }
  .t-sub { fill: #5b6675; }
  .t-arrow { fill: #475569; }
  .t-code { fill: #1e40af; }
  .code-bg { fill: #f1f5f9; stroke: #e2e8f0; }
  .pill-blue { fill: #dbeafe; } .pill-amber { fill: #fef3c7; } .pill-grey { fill: #e2e8f0; }
  .pt-blue { fill: #1d4ed8; } .pt-amber { fill: #b45309; } .pt-grey { fill: #334155; }
  @media (prefers-color-scheme: dark) {
    .surface { fill: #1e293b; stroke: #334155; }
    .band-blue { fill: #172554; stroke: #3b82f6; }
    .band-amber { fill: #2c1f06; stroke: #f59e0b; }
    .band-grey { fill: #131c31; stroke: #334155; }
    .t-title { fill: #e2e8f0; }
    .t-sub { fill: #94a3b8; }
    .t-arrow { fill: #cbd5e1; }
    .t-code { fill: #93c5fd; }
    .code-bg { fill: #0f172a; stroke: #334155; }
    .pill-blue { fill: #1e3a8a; } .pill-amber { fill: #78350f; } .pill-grey { fill: #334155; }
    .pt-blue { fill: #bfdbfe; } .pt-amber { fill: #fde68a; } .pt-grey { fill: #e2e8f0; }
    #tintBlue stop[offset="0"] { stop-color: #16233d; }
    #tintBlue stop[offset="1"] { stop-color: #1e3a8a; }
    #tintAmber stop[offset="0"] { stop-color: #2a1e07; }
    #tintAmber stop[offset="1"] { stop-color: #78350f; }
  }
</style>
<filter id="sh" x="-20%" y="-30%" width="140%" height="180%">
  <feDropShadow dx="0" dy="2.5" stdDeviation="4.5" flood-color="#0f172a" flood-opacity="0.18"/>
</filter>
<filter id="glow" x="-40%" y="-40%" width="180%" height="180%">
  <feDropShadow dx="0" dy="4" stdDeviation="9" flood-color="#2563eb" flood-opacity="0.35"/>
</filter>
<linearGradient id="hero" x1="0" y1="0" x2="1" y2="1"><stop offset="0" stop-color="#60a5fa"/><stop offset="0.5" stop-color="#2563eb"/><stop offset="1" stop-color="#4f46e5"/></linearGradient>
<linearGradient id="heroAmber" x1="0" y1="0" x2="1" y2="1"><stop offset="0" stop-color="#fbbf24"/><stop offset="1" stop-color="#d97706"/></linearGradient>
<linearGradient id="tintBlue" x1="0" y1="0" x2="0" y2="1"><stop offset="0" stop-color="#f5f9ff"/><stop offset="1" stop-color="#dbeafe"/></linearGradient>
<linearGradient id="tintAmber" x1="0" y1="0" x2="0" y2="1"><stop offset="0" stop-color="#fffdf5"/><stop offset="1" stop-color="#fdecc8"/></linearGradient>
<linearGradient id="ribbonBlue" x1="0" y1="0" x2="1" y2="0"><stop offset="0" stop-color="#93c5fd"/><stop offset="1" stop-color="#2563eb"/></linearGradient>
<linearGradient id="ribbonAmber" x1="0" y1="0" x2="1" y2="0"><stop offset="0" stop-color="#f59e0b"/><stop offset="1" stop-color="#fbbf24"/></linearGradient>
<marker id="arB" viewBox="0 0 10 10" refX="8" refY="5" markerWidth="7" markerHeight="7" orient="auto-start-reverse"><path d="M0 0 L10 5 L0 10 z" fill="#2563eb"/></marker>
<marker id="arA" viewBox="0 0 10 10" refX="8" refY="5" markerWidth="7" markerHeight="7" orient="auto-start-reverse"><path d="M0 0 L10 5 L0 10 z" fill="#d97706"/></marker>
<marker id="arG" viewBox="0 0 10 10" refX="8" refY="5" markerWidth="7" markerHeight="7" orient="auto-start-reverse"><path d="M0 0 L10 5 L0 10 z" fill="#94a3b8"/></marker>
</defs><rect x="20" y="20" width="940" height="438" rx="16" class="band-blue" stroke-width="1.5"/><text x="38" y="44" font-family="Helvetica,Arial,sans-serif" font-size="12.5" font-weight="700" letter-spacing="1.5" fill="#3b82f6">WHICH ROWS A JOIN KEEPS</text><text x="60" y="76" text-anchor="start" font-family="Helvetica,Arial,sans-serif" font-size="12.5" font-weight="700" class="t-arrow">left keys</text><rect x="135" y="56" width="30" height="30" rx="6" class="surface" style="stroke: #2563eb" stroke-width="1.8"/><text x="150" y="76" text-anchor="middle" font-family="Helvetica,Arial,sans-serif" font-size="13.5" font-weight="700" class="t-title">1</text><rect x="175" y="56" width="30" height="30" rx="6" class="surface" style="stroke: #2563eb" stroke-width="1.8"/><text x="190" y="76" text-anchor="middle" font-family="Helvetica,Arial,sans-serif" font-size="13.5" font-weight="700" class="t-title">2</text><rect x="215" y="56" width="30" height="30" rx="6" class="surface" style="stroke: #2563eb" stroke-width="1.8"/><text x="230" y="76" text-anchor="middle" font-family="Helvetica,Arial,sans-serif" font-size="13.5" font-weight="700" class="t-title">3</text><text x="330" y="76" text-anchor="start" font-family="Helvetica,Arial,sans-serif" font-size="12.5" font-weight="700" class="t-arrow">right keys</text><rect x="413" y="56" width="30" height="30" rx="6" class="surface" style="stroke: #d97706" stroke-width="1.8"/><text x="428" y="76" text-anchor="middle" font-family="Helvetica,Arial,sans-serif" font-size="13.5" font-weight="700" class="t-title">2</text><rect x="453" y="56" width="30" height="30" rx="6" class="surface" style="stroke: #d97706" stroke-width="1.8"/><text x="468" y="76" text-anchor="middle" font-family="Helvetica,Arial,sans-serif" font-size="13.5" font-weight="700" class="t-title">3</text><rect x="493" y="56" width="30" height="30" rx="6" class="surface" style="stroke: #d97706" stroke-width="1.8"/><text x="508" y="76" text-anchor="middle" font-family="Helvetica,Arial,sans-serif" font-size="13.5" font-weight="700" class="t-title">4</text><text x="560" y="76" text-anchor="start" font-family="Helvetica,Arial,sans-serif" font-size="11.5" class="t-sub">Each output row is one left row, one right row, or a matched pair.</text><text x="60" y="136" text-anchor="start" font-family="Helvetica,Arial,sans-serif" font-size="12" font-weight="800" letter-spacing="1.8" fill="#2563eb">HOW=</text><text x="330" y="136" text-anchor="middle" font-family="Helvetica,Arial,sans-serif" font-size="12" font-weight="800" letter-spacing="1.8" fill="#2563eb">KEY 1</text><text x="330" y="156" text-anchor="middle" font-family="Helvetica,Arial,sans-serif" font-size="11.5" class="t-sub">left only</text><text x="500" y="136" text-anchor="middle" font-family="Helvetica,Arial,sans-serif" font-size="12" font-weight="800" letter-spacing="1.8" fill="#2563eb">KEYS 2, 3</text><text x="500" y="156" text-anchor="middle" font-family="Helvetica,Arial,sans-serif" font-size="11.5" class="t-sub">on both sides</text><text x="670" y="136" text-anchor="middle" font-family="Helvetica,Arial,sans-serif" font-size="12" font-weight="800" letter-spacing="1.8" fill="#2563eb">KEY 4</text><text x="670" y="156" text-anchor="middle" font-family="Helvetica,Arial,sans-serif" font-size="11.5" class="t-sub">right only</text><text x="858" y="136" text-anchor="middle" font-family="Helvetica,Arial,sans-serif" font-size="12" font-weight="800" letter-spacing="1.8" fill="#2563eb">COLUMNS</text><text x="858" y="156" text-anchor="middle" font-family="Helvetica,Arial,sans-serif" font-size="11.5" class="t-sub">in the output</text><path d="M 44 176 H 936" stroke="#94a3b8" stroke-opacity="0.5" stroke-width="1.2"/><text x="60" y="209" text-anchor="start" font-family="Menlo,Consolas,DejaVu Sans Mono,monospace" font-size="13" font-weight="700" class="t-code">"inner"</text><circle cx="330" cy="204" r="10" fill="none" stroke="#94a3b8" stroke-width="1.8"/><path d="M 326.2 200.2 L 333.8 207.8 M 333.8 200.2 L 326.2 207.8" stroke="#94a3b8" stroke-width="2" stroke-linecap="round"/><circle cx="500" cy="204" r="10" fill="#2563eb"/><path d="M 495.5 204 L 499 207.8 L 505 200.2" fill="none" stroke="#ffffff" stroke-width="2.2" stroke-linecap="round" stroke-linejoin="round"/><circle cx="670" cy="204" r="10" fill="none" stroke="#94a3b8" stroke-width="1.8"/><path d="M 666.2 200.2 L 673.8 207.8 M 673.8 200.2 L 666.2 207.8" stroke="#94a3b8" stroke-width="2" stroke-linecap="round"/><rect x="810.8" y="195" width="94.4" height="20" rx="10" class="pill-blue"/><text x="858.0" y="209" text-anchor="middle" font-family="Helvetica,Arial,sans-serif" font-size="11" font-weight="700" letter-spacing="0.4" class="pt-blue">left + right</text><text x="60" y="249" text-anchor="start" font-family="Menlo,Consolas,DejaVu Sans Mono,monospace" font-size="13" font-weight="700" class="t-code">"left"</text><circle cx="286" cy="244" r="10" fill="#2563eb"/><path d="M 281.5 244 L 285 247.8 L 291 240.2" fill="none" stroke="#ffffff" stroke-width="2.2" stroke-linecap="round" stroke-linejoin="round"/><circle cx="500" cy="244" r="10" fill="#2563eb"/><path d="M 495.5 244 L 499 247.8 L 505 240.2" fill="none" stroke="#ffffff" stroke-width="2.2" stroke-linecap="round" stroke-linejoin="round"/><circle cx="670" cy="244" r="10" fill="none" stroke="#94a3b8" stroke-width="1.8"/><path d="M 666.2 240.2 L 673.8 247.8 M 673.8 240.2 L 666.2 247.8" stroke="#94a3b8" stroke-width="2" stroke-linecap="round"/><rect x="810.8" y="235" width="94.4" height="20" rx="10" class="pill-blue"/><text x="858.0" y="249" text-anchor="middle" font-family="Helvetica,Arial,sans-serif" font-size="11" font-weight="700" letter-spacing="0.4" class="pt-blue">left + right</text><text x="304" y="248" text-anchor="start" font-family="Helvetica,Arial,sans-serif" font-size="11.5" class="t-sub">right is null</text><text x="60" y="289" text-anchor="start" font-family="Menlo,Consolas,DejaVu Sans Mono,monospace" font-size="13" font-weight="700" class="t-code">"right"</text><circle cx="330" cy="284" r="10" fill="none" stroke="#94a3b8" stroke-width="1.8"/><path d="M 326.2 280.2 L 333.8 287.8 M 333.8 280.2 L 326.2 287.8" stroke="#94a3b8" stroke-width="2" stroke-linecap="round"/><circle cx="500" cy="284" r="10" fill="#2563eb"/><path d="M 495.5 284 L 499 287.8 L 505 280.2" fill="none" stroke="#ffffff" stroke-width="2.2" stroke-linecap="round" stroke-linejoin="round"/><circle cx="626" cy="284" r="10" fill="#2563eb"/><path d="M 621.5 284 L 625 287.8 L 631 280.2" fill="none" stroke="#ffffff" stroke-width="2.2" stroke-linecap="round" stroke-linejoin="round"/><rect x="810.8" y="275" width="94.4" height="20" rx="10" class="pill-blue"/><text x="858.0" y="289" text-anchor="middle" font-family="Helvetica,Arial,sans-serif" font-size="11" font-weight="700" letter-spacing="0.4" class="pt-blue">left + right</text><text x="644" y="288" text-anchor="start" font-family="Helvetica,Arial,sans-serif" font-size="11.5" class="t-sub">left is null</text><text x="60" y="329" text-anchor="start" font-family="Menlo,Consolas,DejaVu Sans Mono,monospace" font-size="13" font-weight="700" class="t-code">"full"</text><circle cx="286" cy="324" r="10" fill="#2563eb"/><path d="M 281.5 324 L 285 327.8 L 291 320.2" fill="none" stroke="#ffffff" stroke-width="2.2" stroke-linecap="round" stroke-linejoin="round"/><circle cx="500" cy="324" r="10" fill="#2563eb"/><path d="M 495.5 324 L 499 327.8 L 505 320.2" fill="none" stroke="#ffffff" stroke-width="2.2" stroke-linecap="round" stroke-linejoin="round"/><circle cx="626" cy="324" r="10" fill="#2563eb"/><path d="M 621.5 324 L 625 327.8 L 631 320.2" fill="none" stroke="#ffffff" stroke-width="2.2" stroke-linecap="round" stroke-linejoin="round"/><rect x="810.8" y="315" width="94.4" height="20" rx="10" class="pill-blue"/><text x="858.0" y="329" text-anchor="middle" font-family="Helvetica,Arial,sans-serif" font-size="11" font-weight="700" letter-spacing="0.4" class="pt-blue">left + right</text><text x="304" y="328" text-anchor="start" font-family="Helvetica,Arial,sans-serif" font-size="11.5" class="t-sub">right is null</text><text x="644" y="328" text-anchor="start" font-family="Helvetica,Arial,sans-serif" font-size="11.5" class="t-sub">left is null</text><text x="60" y="369" text-anchor="start" font-family="Menlo,Consolas,DejaVu Sans Mono,monospace" font-size="13" font-weight="700" class="t-code">"semi"</text><circle cx="330" cy="364" r="10" fill="none" stroke="#94a3b8" stroke-width="1.8"/><path d="M 326.2 360.2 L 333.8 367.8 M 333.8 360.2 L 326.2 367.8" stroke="#94a3b8" stroke-width="2" stroke-linecap="round"/><circle cx="500" cy="364" r="10" fill="#2563eb"/><path d="M 495.5 364 L 499 367.8 L 505 360.2" fill="none" stroke="#ffffff" stroke-width="2.2" stroke-linecap="round" stroke-linejoin="round"/><circle cx="670" cy="364" r="10" fill="none" stroke="#94a3b8" stroke-width="1.8"/><path d="M 666.2 360.2 L 673.8 367.8 M 673.8 360.2 L 666.2 367.8" stroke="#94a3b8" stroke-width="2" stroke-linecap="round"/><rect x="820.85" y="355" width="74.30000000000001" height="20" rx="10" class="pill-grey"/><text x="858.0" y="369" text-anchor="middle" font-family="Helvetica,Arial,sans-serif" font-size="11" font-weight="700" letter-spacing="0.4" class="pt-grey">left only</text><text x="60" y="409" text-anchor="start" font-family="Menlo,Consolas,DejaVu Sans Mono,monospace" font-size="13" font-weight="700" class="t-code">"anti"</text><circle cx="330" cy="404" r="10" fill="#2563eb"/><path d="M 325.5 404 L 329 407.8 L 335 400.2" fill="none" stroke="#ffffff" stroke-width="2.2" stroke-linecap="round" stroke-linejoin="round"/><circle cx="500" cy="404" r="10" fill="none" stroke="#94a3b8" stroke-width="1.8"/><path d="M 496.2 400.2 L 503.8 407.8 M 503.8 400.2 L 496.2 407.8" stroke="#94a3b8" stroke-width="2" stroke-linecap="round"/><circle cx="670" cy="404" r="10" fill="none" stroke="#94a3b8" stroke-width="1.8"/><path d="M 666.2 400.2 L 673.8 407.8 M 673.8 400.2 L 666.2 407.8" stroke="#94a3b8" stroke-width="2" stroke-linecap="round"/><rect x="820.85" y="395" width="74.30000000000001" height="20" rx="10" class="pill-grey"/><text x="858.0" y="409" text-anchor="middle" font-family="Helvetica,Arial,sans-serif" font-size="11" font-weight="700" letter-spacing="0.4" class="pt-grey">left only</text><text x="490" y="448" text-anchor="middle" font-family="Helvetica,Arial,sans-serif" font-size="11.5" class="t-sub">"outer" is the same as "full". Semi and anti filter the left rows by existence.</text><rect x="20" y="474" width="940" height="246" rx="16" class="band-amber" stroke-width="1.5"/><text x="38" y="498" font-family="Helvetica,Arial,sans-serif" font-size="12.5" font-weight="700" letter-spacing="1.5" fill="#f59e0b">JOIN_ASOF: EVERY LEFT ROW, THE LAST RIGHT ROW AT OR BEFORE IT</text><path d="M 150.0 566 H 909.0" stroke="#94a3b8" stroke-width="1.4"/><text x="60" y="571" text-anchor="start" font-family="Helvetica,Arial,sans-serif" font-size="12.5" font-weight="700" class="t-arrow">sym A</text><rect x="275.0" y="559" width="14" height="14" rx="2" fill="#d97706"/><text x="282.0" y="532" text-anchor="middle" font-family="Helvetica,Arial,sans-serif" font-size="11.5" class="t-sub">quote t=8, 1.0</text><rect x="770.0" y="559" width="14" height="14" rx="2" fill="#d97706"/><text x="777.0" y="532" text-anchor="middle" font-family="Helvetica,Arial,sans-serif" font-size="11.5" class="t-sub">quote t=38, 1.1</text><circle cx="315.0" cy="566" r="7" fill="#2563eb"/><text x="315.0" y="592" text-anchor="middle" font-family="Helvetica,Arial,sans-serif" font-size="11.5" class="t-sub">trade t=10</text><circle cx="810.0" cy="566" r="7" fill="#2563eb"/><text x="810.0" y="592" text-anchor="middle" font-family="Helvetica,Arial,sans-serif" font-size="11.5" class="t-sub">trade t=40</text><path d="M 312.0 557 Q 298.5 530 285.0 557" fill="none" stroke="#d97706" stroke-width="2.6"/><path d="M 807.0 557 Q 793.5 530 780.0 557" fill="none" stroke="#d97706" stroke-width="2.6"/><text x="348.0" y="554" text-anchor="start" font-family="Helvetica,Arial,sans-serif" font-size="12" font-weight="700" class="t-arrow">price 1.0</text><text x="744.0" y="554" text-anchor="end" font-family="Helvetica,Arial,sans-serif" font-size="12" font-weight="700" class="t-arrow">price 1.1</text><path d="M 150.0 648 H 909.0" stroke="#94a3b8" stroke-width="1.4"/><text x="60" y="653" text-anchor="start" font-family="Helvetica,Arial,sans-serif" font-size="12.5" font-weight="700" class="t-arrow">sym B</text><rect x="159.5" y="641" width="14" height="14" rx="2" fill="#d97706"/><text x="166.5" y="614" text-anchor="middle" font-family="Helvetica,Arial,sans-serif" font-size="11.5" class="t-sub">quote t=1, 9.0</text><circle cx="315.0" cy="648" r="7" fill="#2563eb"/><text x="315.0" y="674" text-anchor="middle" font-family="Helvetica,Arial,sans-serif" font-size="11.5" class="t-sub">trade t=10</text><path d="M 312.0 639 Q 240.75 612 169.5 639" fill="none" stroke="#94a3b8" stroke-width="2.6" stroke-dasharray="4 3"/><text x="389.25" y="674" text-anchor="start" font-family="Helvetica,Arial,sans-serif" font-size="12" font-weight="700" class="t-arrow">9 units back: price 9.0, or null with tolerance=5</text><text x="490" y="706" text-anchor="middle" font-family="Helvetica,Arial,sans-serif" font-size="11.5" class="t-sub">by="sym" keeps one symbol's quotes away from another's trades.</text></svg>