<svg xmlns="http://www.w3.org/2000/svg" viewBox="0 0 720 694"><defs>
<linearGradient id="blue" x1="0" y1="0" x2="0" y2="1"><stop offset="0" stop-color="#f5f9ff"/><stop offset="1" stop-color="#dbeafe"/></linearGradient>
<linearGradient id="amber" x1="0" y1="0" x2="0" y2="1"><stop offset="0" stop-color="#fffdf5"/><stop offset="1" stop-color="#fdecc8"/></linearGradient>
<linearGradient id="grey" x1="0" y1="0" x2="0" y2="1"><stop offset="0" stop-color="#fbfcfe"/><stop offset="1" stop-color="#eef2f7"/></linearGradient>
<filter id="sh" x="-20%" y="-30%" width="140%" height="180%"><feDropShadow dx="0" dy="2.5" stdDeviation="4.5" flood-color="#1e293b" flood-opacity="0.15"/></filter>
<marker id="arB" viewBox="0 0 10 10" refX="8" refY="5" markerWidth="7" markerHeight="7" orient="auto-start-reverse"><path d="M0 0 L10 5 L0 10 z" fill="#2563eb"/></marker>
<marker id="arA" viewBox="0 0 10 10" refX="8" refY="5" markerWidth="7" markerHeight="7" orient="auto-start-reverse"><path d="M0 0 L10 5 L0 10 z" fill="#d97706"/></marker>
<marker id="arG" viewBox="0 0 10 10" refX="8" refY="5" markerWidth="7" markerHeight="7" orient="auto-start-reverse"><path d="M0 0 L10 5 L0 10 z" fill="#94a3b8"/></marker>
</defs><g filter="url(#sh)"><rect x="24" y="20" width="672" height="64" rx="13" fill="url(#blue)" stroke="#bfdbfe" stroke-width="1.4"/><rect x="24" y="31" width="5" height="42" rx="2.5" fill="#3b82f6"/></g><text x="363.0" y="49.0" text-anchor="middle" font-family="Helvetica,Arial,sans-serif" font-size="17" font-weight="700" fill="#1e293b">User API</text><text x="363.0" y="70.0" text-anchor="middle" font-family="Helvetica,Arial,sans-serif" font-size="12.5" fill="#5b6675">bt.read() · bt.col() · ds.filter() · ds.join() · ds.collect()</text><g filter="url(#sh)"><rect x="24" y="106" width="672" height="64" rx="13" fill="url(#blue)" stroke="#bfdbfe" stroke-width="1.4"/><rect x="24" y="117" width="5" height="42" rx="2.5" fill="#3b82f6"/></g><text x="363.0" y="135.0" text-anchor="middle" font-family="Helvetica,Arial,sans-serif" font-size="17" font-weight="700" fill="#1e293b">Dataset API</text><text x="363.0" y="156.0" text-anchor="middle" font-family="Helvetica,Arial,sans-serif" font-size="12.5" fill="#5b6675">lazy operations that build logical plans</text><path d="M 360.0 84 L 360.0 106" fill="none" stroke="#94a3b8" stroke-width="2.4" marker-end="url(#arG)"/><g filter="url(#sh)"><rect x="24" y="192" width="672" height="64" rx="13" fill="url(#grey)" stroke="#cbd5e1" stroke-width="1.4"/><rect x="24" y="203" width="5" height="42" rx="2.5" fill="#94a3b8"/></g><text x="363.0" y="221.0" text-anchor="middle" font-family="Helvetica,Arial,sans-serif" font-size="17" font-weight="700" fill="#334155">Logical Plan</text><text x="363.0" y="242.0" text-anchor="middle" font-family="Helvetica,Arial,sans-serif" font-size="12.5" fill="#5b6675">Scan · Filter · Project · Join · Aggregate</text><path d="M 360.0 170 L 360.0 192" fill="none" stroke="#94a3b8" stroke-width="2.4" marker-end="url(#arG)"/><g filter="url(#sh)"><rect x="24" y="278" width="672" height="64" rx="13" fill="url(#blue)" stroke="#bfdbfe" stroke-width="1.4"/><rect x="24" y="289" width="5" height="42" rx="2.5" fill="#3b82f6"/></g><text x="363.0" y="307.0" text-anchor="middle" font-family="Helvetica,Arial,sans-serif" font-size="17" font-weight="700" fill="#1e293b">Kyber — optimizer</text><text x="363.0" y="328.0" text-anchor="middle" font-family="Helvetica,Arial,sans-serif" font-size="12.5" fill="#5b6675">rule + cost passes · learned cardinality · adaptive re-opt</text><path d="M 360.0 256 L 360.0 278" fill="none" stroke="#94a3b8" stroke-width="2.4" marker-end="url(#arG)"/><g filter="url(#sh)"><rect x="24" y="364" width="672" height="64" rx="13" fill="url(#grey)" stroke="#cbd5e1" stroke-width="1.4"/><rect x="24" y="375" width="5" height="42" rx="2.5" fill="#94a3b8"/></g><text x="363.0" y="393.0" text-anchor="middle" font-family="Helvetica,Arial,sans-serif" font-size="17" font-weight="700" fill="#334155">Physical Plan</text><text x="363.0" y="414.0" text-anchor="middle" font-family="Helvetica,Arial,sans-serif" font-size="12.5" fill="#5b6675">concrete mergeable operators (single-node == distributed)</text><path d="M 360.0 342 L 360.0 364" fill="none" stroke="#94a3b8" stroke-width="2.4" marker-end="url(#arG)"/><g filter="url(#sh)"><rect x="24" y="450" width="672" height="64" rx="13" fill="url(#amber)" stroke="#fcd34d" stroke-width="1.4"/><rect x="24" y="461" width="5" height="42" rx="2.5" fill="#f59e0b"/></g><text x="363.0" y="479.0" text-anchor="middle" font-family="Helvetica,Arial,sans-serif" font-size="17" font-weight="700" fill="#1e293b">Execution Engine</text><text x="363.0" y="500.0" text-anchor="middle" font-family="Helvetica,Arial,sans-serif" font-size="12.5" fill="#5b6675">plan compilation · morsel scheduling · progress</text><path d="M 360.0 428 L 360.0 450" fill="none" stroke="#94a3b8" stroke-width="2.4" marker-end="url(#arG)"/><g filter="url(#sh)"><rect x="24" y="536" width="672" height="64" rx="13" fill="url(#amber)" stroke="#fcd34d" stroke-width="1.4"/><rect x="24" y="547" width="5" height="42" rx="2.5" fill="#f59e0b"/></g><text x="363.0" y="565.0" text-anchor="middle" font-family="Helvetica,Arial,sans-serif" font-size="17" font-weight="700" fill="#1e293b">Carbonite</text><text x="363.0" y="586.0" text-anchor="middle" font-family="Helvetica,Arial,sans-serif" font-size="12.5" fill="#5b6675">memory · caching · spill-to-disk · data transfer</text><path d="M 360.0 514 L 360.0 536" fill="none" stroke="#94a3b8" stroke-width="2.4" marker-end="url(#arG)"/><g filter="url(#sh)"><rect x="24" y="622" width="672" height="64" rx="13" fill="url(#grey)" stroke="#cbd5e1" stroke-width="1.4"/><rect x="24" y="633" width="5" height="42" rx="2.5" fill="#94a3b8"/></g><text x="363.0" y="651.0" text-anchor="middle" font-family="Helvetica,Arial,sans-serif" font-size="17" font-weight="700" fill="#334155">Ray (optional)</text><text x="363.0" y="672.0" text-anchor="middle" font-family="Helvetica,Arial,sans-serif" font-size="12.5" fill="#5b6675">scheduling + metadata; bulk data over Arrow Flight</text><path d="M 360.0 600 L 360.0 622" fill="none" stroke="#94a3b8" stroke-width="2.4" marker-end="url(#arG)"/></svg>