<svg xmlns="http://www.w3.org/2000/svg" viewBox="0 0 1180 210">
<defs>
<linearGradient id="blue" x1="0" y1="0" x2="0" y2="1"><stop offset="0" stop-color="#f5f9ff"/><stop offset="1" stop-color="#dbeafe"/></linearGradient>
<linearGradient id="amber" x1="0" y1="0" x2="0" y2="1"><stop offset="0" stop-color="#fffdf5"/><stop offset="1" stop-color="#fdecc8"/></linearGradient>
<linearGradient id="grey" x1="0" y1="0" x2="0" y2="1"><stop offset="0" stop-color="#fbfcfe"/><stop offset="1" stop-color="#eef2f7"/></linearGradient>
<linearGradient id="core" x1="0" y1="0" x2="1" y2="1"><stop offset="0" stop-color="#60a5fa"/><stop offset="0.5" stop-color="#2563eb"/><stop offset="1" stop-color="#4f46e5"/></linearGradient>
<filter id="sh" x="-20%" y="-30%" width="140%" height="170%"><feDropShadow dx="0" dy="3" stdDeviation="5" flood-color="#1e293b" flood-opacity="0.16"/></filter>
<marker id="arB" viewBox="0 0 10 10" refX="8" refY="5" markerWidth="7" markerHeight="7" orient="auto-start-reverse"><path d="M0 0 L10 5 L0 10 z" fill="#2563eb"/></marker>
<marker id="arA" viewBox="0 0 10 10" refX="8" refY="5" markerWidth="7" markerHeight="7" orient="auto-start-reverse"><path d="M0 0 L10 5 L0 10 z" fill="#d97706"/></marker>
<marker id="arG" viewBox="0 0 10 10" refX="8" refY="5" markerWidth="7" markerHeight="7" orient="auto-start-reverse"><path d="M0 0 L10 5 L0 10 z" fill="#94a3b8"/></marker>
</defs>
<g filter="url(#sh)"><rect x="16" y="70" width="196" height="86" rx="14" fill="url(#blue)" stroke="#bfdbfe" stroke-width="1.5"/><rect x="16" y="82" width="5" height="62" rx="2.5" fill="#3b82f6"/></g><text x="117.0" y="107" text-anchor="middle" font-family="Helvetica,Arial,sans-serif" font-size="18" font-weight="700" fill="#1e293b">bt.read(…)</text><text x="117.0" y="129" text-anchor="middle" font-family="Helvetica,Arial,sans-serif" font-size="14" font-weight="500" fill="#5b6675">from_pydict(…)</text>
<g filter="url(#sh)"><rect x="256" y="70" width="196" height="86" rx="14" fill="url(#blue)" stroke="#bfdbfe" stroke-width="1.5"/><rect x="256" y="82" width="5" height="62" rx="2.5" fill="#3b82f6"/></g><text x="357.0" y="107" text-anchor="middle" font-family="Helvetica,Arial,sans-serif" font-size="18" font-weight="700" fill="#1e293b">filter · select</text><text x="357.0" y="129" text-anchor="middle" font-family="Helvetica,Arial,sans-serif" font-size="14" font-weight="500" fill="#5b6675">group_by · join</text>
<g filter="url(#sh)"><rect x="496" y="70" width="196" height="86" rx="14" fill="url(#grey)" stroke="#cbd5e1" stroke-width="1.5"/><rect x="496" y="82" width="5" height="62" rx="2.5" fill="#94a3b8"/></g><text x="597.0" y="107" text-anchor="middle" font-family="Helvetica,Arial,sans-serif" font-size="18" font-weight="700" fill="#334155">LogicalPlan</text><text x="597.0" y="129" text-anchor="middle" font-family="Helvetica,Arial,sans-serif" font-size="14" font-weight="500" fill="#5b6675">nothing has run</text>
<g filter="url(#sh)"><rect x="742" y="70" width="196" height="86" rx="14" fill="url(#amber)" stroke="#fcd34d" stroke-width="1.5"/><rect x="742" y="82" width="5" height="62" rx="2.5" fill="#f59e0b"/></g><text x="843.0" y="107" text-anchor="middle" font-family="Helvetica,Arial,sans-serif" font-size="18" font-weight="700" fill="#1e293b">collect() / write</text><text x="843.0" y="129" text-anchor="middle" font-family="Helvetica,Arial,sans-serif" font-size="14" font-weight="500" fill="#5b6675">to_pydict()</text>
<g filter="url(#sh)"><rect x="982" y="70" width="196" height="86" rx="14" fill="url(#grey)" stroke="#cbd5e1" stroke-width="1.5"/><rect x="982" y="82" width="5" height="62" rx="2.5" fill="#94a3b8"/></g><text x="1083.0" y="118" text-anchor="middle" font-family="Helvetica,Arial,sans-serif" font-size="18" font-weight="700" fill="#334155">Arrow result</text>
<path d="M 212 113.0 L 256 113.0" fill="none" stroke="#2563eb" stroke-width="2.6" marker-end="url(#arB)"/><text x="234.0" y="103.0" text-anchor="middle" font-family="Helvetica,Arial,sans-serif" font-size="12" font-weight="600" fill="#5b6675">lazy</text>
<path d="M 452 113.0 L 496 113.0" fill="none" stroke="#2563eb" stroke-width="2.6" marker-end="url(#arB)"/><text x="474.0" y="103.0" text-anchor="middle" font-family="Helvetica,Arial,sans-serif" font-size="12" font-weight="600" fill="#5b6675">builds</text>
<path d="M 692 113.0 L 742 113.0" fill="none" stroke="#d97706" stroke-width="2.6" marker-end="url(#arA)"/><text x="717.0" y="103.0" text-anchor="middle" font-family="Helvetica,Arial,sans-serif" font-size="12" font-weight="600" fill="#d97706">terminal · runs</text>
<path d="M 938 113.0 L 982 113.0" fill="none" stroke="#94a3b8" stroke-width="2.6" marker-end="url(#arG)"/>
</svg>