<svg xmlns="http://www.w3.org/2000/svg" viewBox="0 0 1080 300">
<defs>
<linearGradient id="blue" x1="0" y1="0" x2="0" y2="1"><stop offset="0" stop-color="#f5f9ff"/><stop offset="1" stop-color="#dbeafe"/></linearGradient>
<linearGradient id="amber" x1="0" y1="0" x2="0" y2="1"><stop offset="0" stop-color="#fffdf5"/><stop offset="1" stop-color="#fdecc8"/></linearGradient>
<linearGradient id="grey" x1="0" y1="0" x2="0" y2="1"><stop offset="0" stop-color="#fbfcfe"/><stop offset="1" stop-color="#eef2f7"/></linearGradient>
<linearGradient id="core" x1="0" y1="0" x2="1" y2="1"><stop offset="0" stop-color="#60a5fa"/><stop offset="0.5" stop-color="#2563eb"/><stop offset="1" stop-color="#4f46e5"/></linearGradient>
<filter id="sh" x="-20%" y="-30%" width="140%" height="170%"><feDropShadow dx="0" dy="3" stdDeviation="5" flood-color="#1e293b" flood-opacity="0.16"/></filter>
<marker id="arB" viewBox="0 0 10 10" refX="8" refY="5" markerWidth="7" markerHeight="7" orient="auto-start-reverse"><path d="M0 0 L10 5 L0 10 z" fill="#2563eb"/></marker>
<marker id="arA" viewBox="0 0 10 10" refX="8" refY="5" markerWidth="7" markerHeight="7" orient="auto-start-reverse"><path d="M0 0 L10 5 L0 10 z" fill="#d97706"/></marker>
<marker id="arG" viewBox="0 0 10 10" refX="8" refY="5" markerWidth="7" markerHeight="7" orient="auto-start-reverse"><path d="M0 0 L10 5 L0 10 z" fill="#94a3b8"/></marker>
</defs>
<g filter="url(#sh)"><rect x="20" y="24" width="188" height="66" rx="14" fill="url(#blue)" stroke="#bfdbfe" stroke-width="1.5"/><rect x="20" y="36" width="5" height="42" rx="2.5" fill="#3b82f6"/></g><text x="117.0" y="62" text-anchor="middle" font-family="Helvetica,Arial,sans-serif" font-size="18" font-weight="700" fill="#1e293b">partial(p1)</text>
<g filter="url(#sh)"><rect x="20" y="117" width="188" height="66" rx="14" fill="url(#blue)" stroke="#bfdbfe" stroke-width="1.5"/><rect x="20" y="129" width="5" height="42" rx="2.5" fill="#3b82f6"/></g><text x="117.0" y="155" text-anchor="middle" font-family="Helvetica,Arial,sans-serif" font-size="18" font-weight="700" fill="#1e293b">partial(p2)</text>
<g filter="url(#sh)"><rect x="20" y="210" width="188" height="66" rx="14" fill="url(#blue)" stroke="#bfdbfe" stroke-width="1.5"/><rect x="20" y="222" width="5" height="42" rx="2.5" fill="#3b82f6"/></g><text x="117.0" y="248" text-anchor="middle" font-family="Helvetica,Arial,sans-serif" font-size="18" font-weight="700" fill="#1e293b">partial(p3)</text>
<g filter="url(#sh)"><rect x="360" y="108" width="176" height="66" rx="14" fill="url(#amber)" stroke="#fcd34d" stroke-width="1.5"/><rect x="360" y="120" width="5" height="42" rx="2.5" fill="#f59e0b"/></g><text x="451.0" y="135" text-anchor="middle" font-family="Helvetica,Arial,sans-serif" font-size="18" font-weight="700" fill="#1e293b">combine</text><text x="451.0" y="157" text-anchor="middle" font-family="Helvetica,Arial,sans-serif" font-size="14" font-weight="500" fill="#5b6675">associative</text>
<g filter="url(#sh)"><rect x="624" y="108" width="150" height="66" rx="14" fill="url(#amber)" stroke="#fcd34d" stroke-width="1.5"/><rect x="624" y="120" width="5" height="42" rx="2.5" fill="#f59e0b"/></g><text x="702.0" y="146" text-anchor="middle" font-family="Helvetica,Arial,sans-serif" font-size="18" font-weight="700" fill="#1e293b">finalize</text>
<g filter="url(#sh)"><rect x="860" y="108" width="176" height="66" rx="14" fill="url(#grey)" stroke="#cbd5e1" stroke-width="1.5"/><rect x="860" y="120" width="5" height="42" rx="2.5" fill="#94a3b8"/></g><text x="951.0" y="146" text-anchor="middle" font-family="Helvetica,Arial,sans-serif" font-size="18" font-weight="700" fill="#334155">result</text>
<path d="M 208 57.0 L 360 141.0" fill="none" stroke="#2563eb" stroke-width="2.6" marker-end="url(#arB)"/>
<path d="M 208 150.0 L 360 141.0" fill="none" stroke="#2563eb" stroke-width="2.6" marker-end="url(#arB)"/>
<path d="M 208 243.0 L 360 141.0" fill="none" stroke="#2563eb" stroke-width="2.6" marker-end="url(#arB)"/>
<path d="M 536 141.0 L 624 141.0" fill="none" stroke="#d97706" stroke-width="2.6" marker-end="url(#arA)"/>
<path d="M 774 141.0 L 860 141.0" fill="none" stroke="#94a3b8" stroke-width="2.6" marker-end="url(#arG)"/>
<text x="114" y="14" text-anchor="middle" font-family="Helvetica,Arial,sans-serif" font-size="12" font-weight="700" letter-spacing="1.5" fill="#2563eb">PARTITIONS</text>
</svg>