<svg xmlns="http://www.w3.org/2000/svg" viewBox="0 0 940 250"><defs>
<linearGradient id="blue" x1="0" y1="0" x2="0" y2="1"><stop offset="0" stop-color="#f5f9ff"/><stop offset="1" stop-color="#dbeafe"/></linearGradient>
<linearGradient id="amber" x1="0" y1="0" x2="0" y2="1"><stop offset="0" stop-color="#fffdf5"/><stop offset="1" stop-color="#fdecc8"/></linearGradient>
<linearGradient id="grey" x1="0" y1="0" x2="0" y2="1"><stop offset="0" stop-color="#fbfcfe"/><stop offset="1" stop-color="#eef2f7"/></linearGradient>
<filter id="sh" x="-20%" y="-30%" width="140%" height="180%"><feDropShadow dx="0" dy="2.5" stdDeviation="4.5" flood-color="#1e293b" flood-opacity="0.15"/></filter>
<marker id="arB" viewBox="0 0 10 10" refX="8" refY="5" markerWidth="7" markerHeight="7" orient="auto-start-reverse"><path d="M0 0 L10 5 L0 10 z" fill="#2563eb"/></marker>
<marker id="arA" viewBox="0 0 10 10" refX="8" refY="5" markerWidth="7" markerHeight="7" orient="auto-start-reverse"><path d="M0 0 L10 5 L0 10 z" fill="#d97706"/></marker>
<marker id="arG" viewBox="0 0 10 10" refX="8" refY="5" markerWidth="7" markerHeight="7" orient="auto-start-reverse"><path d="M0 0 L10 5 L0 10 z" fill="#94a3b8"/></marker>
</defs><g filter="url(#sh)"><rect x="24" y="50" width="240" height="76" rx="13" fill="url(#blue)" stroke="#bfdbfe" stroke-width="1.4"/><rect x="24" y="61" width="5" height="54" rx="2.5" fill="#3b82f6"/></g><text x="147.0" y="85.0" text-anchor="middle" font-family="Helvetica,Arial,sans-serif" font-size="17" font-weight="700" fill="#1e293b">Scan → Filter → Project</text><text x="144.0" y="165" text-anchor="middle" font-family="Helvetica,Arial,sans-serif" font-size="12" fill="#5b6675">streams — never materializes</text><g filter="url(#sh)"><rect x="350" y="50" width="240" height="76" rx="13" fill="url(#amber)" stroke="#fcd34d" stroke-width="1.4"/><rect x="350" y="61" width="5" height="54" rx="2.5" fill="#f59e0b"/></g><text x="473.0" y="85.0" text-anchor="middle" font-family="Helvetica,Arial,sans-serif" font-size="17" font-weight="700" fill="#1e293b">HashJoin build</text><text x="470.0" y="165" text-anchor="middle" font-family="Helvetica,Arial,sans-serif" font-size="12" fill="#5b6675">breaker: build the hash table</text><path d="M 264 88 L 350 88" fill="none" stroke="#d97706" stroke-width="2.4" marker-end="url(#arA)"/><g filter="url(#sh)"><rect x="676" y="50" width="240" height="76" rx="13" fill="url(#amber)" stroke="#fcd34d" stroke-width="1.4"/><rect x="676" y="61" width="5" height="54" rx="2.5" fill="#f59e0b"/></g><text x="799.0" y="85.0" text-anchor="middle" font-family="Helvetica,Arial,sans-serif" font-size="17" font-weight="700" fill="#1e293b">Aggregate</text><text x="796.0" y="165" text-anchor="middle" font-family="Helvetica,Arial,sans-serif" font-size="12" fill="#5b6675">breaker: partial aggregate</text><path d="M 590 88 L 676 88" fill="none" stroke="#d97706" stroke-width="2.4" marker-end="url(#arA)"/></svg>